<?xml version="1.0" encoding="UTF-8"?>
<svg id="Social_Icons" xmlns="http://www.w3.org/2000/svg" version="1.1" viewBox="0 0 128 128">
  <!-- Generator: Adobe Illustrator 29.0.0, SVG Export Plug-In . SVG Version: 2.1.0 Build 186)  -->
  <defs>
    <style>
      .st0 {
        fill-rule: evenodd;
      }
    </style>
  </defs>
  <g id="_x31__stroke">
    <g id="Github">
      <path id="Github1" class="st0" d="M64,1.3C28.7,1.3,0,30.1,0,65.6s18.3,52.5,43.8,61c3.2.6,4.4-1.4,4.4-3.1v-10.9c-17.8,3.9-21.6-8.6-21.6-8.6-2.9-7.4-7.1-9.4-7.1-9.4-5.8-4,.4-3.9.4-3.9,6.4.5,9.8,6.6,9.8,6.6,5.7,9.8,15,7,18.6,5.3.6-4.2,2.2-7,4.1-8.6-14.2-1.6-29.2-7.1-29.2-31.8s2.5-12.8,6.6-17.2c-.7-1.6-2.9-8.2.6-17,0,0,5.4-1.7,17.6,6.6,5.1-1.4,10.6-2.1,16-2.2,5.4,0,10.9.7,16,2.2,12.2-8.3,17.6-6.6,17.6-6.6,3.5,8.8,1.3,15.4.6,17,4.1,4.5,6.6,10.2,6.6,17.2,0,24.7-15,30.1-29.2,31.7,2.3,2,4.3,5.9,4.3,11.9v17.6c0,2.1,1.2,3.7,4.4,3.1,25.4-8.5,43.7-32.6,43.7-61S99.3,1.3,64,1.3"/>
    </g>
  </g>
</svg>