<?xml version="1.0" encoding="UTF-8"?>
<svg id="Layer_1" xmlns="http://www.w3.org/2000/svg" version="1.1" viewBox="0 0 512 512">
  <!-- Generator: Adobe Illustrator 29.0.0, SVG Export Plug-In . SVG Version: 2.1.0 Build 186)  -->
  <g id="_x35_6-linkedin">
    <g>
      <rect x="17.4" y="166.3" width="106.7" height="329"/>
      <path d="M414.8,170.1c-1.1-.4-2.2-.7-3.4-1.1-1.4-.3-2.9-.6-4.3-.8-5.7-1.1-11.9-1.9-19.1-1.9-62.2,0-101.7,45.4-114.7,62.9v-62.9h-106.7v329h106.7v-179.4s80.6-112.6,114.7-29.9v209.3h106.7v-222c0-49.7-34-91.1-79.8-103.1h-.1Z"/>
      <path d="M121.8,69.1c0,28.9-23.4,52.3-52.2,52.3s-52.2-23.4-52.2-52.3,23.4-52.3,52.2-52.3,52.2,23.4,52.2,52.3h0Z"/>
    </g>
  </g>
</svg>